<svg xmlns="http://www.w3.org/2000/svg" version="1.1" xmlns:xlink="http://www.w3.org/1999/xlink" xmlns:svgjs="http://svgjs.com/svgjs" width="1440" height="560" preserveAspectRatio="none" viewBox="0 0 1440 560"><g mask="url(&quot;#SvgjsMask1144&quot;)" fill="none"><rect width="1440" height="560" x="0" y="0" fill="rgba(255, 239, 226, 0.4)"></rect><circle r="46.666666666666664" cx="1134.17" cy="383.34" stroke="#037b0b" stroke-width="1"></circle><path d="M905.05 190.47L916.65 185.04 924.49 195.17 936.09 189.75 943.93 199.88 955.53 194.46 963.37 204.58M903.17 198.24L914.77 192.82 922.61 202.95 934.21 197.52 942.05 207.65 953.65 202.23 961.48 212.36" stroke="#037b0b" stroke-width="1" stroke-dasharray="4, 4"></path><path d="M17.97 368.78a5.6 5.6 0 1 0-1.92 11.04 5.6 5.6 0 1 0 1.92-11.04zM15.23 384.55a5.6 5.6 0 1 0-1.92 11.03 5.6 5.6 0 1 0 1.92-11.03zM12.49 400.31a5.6 5.6 0 1 0-1.92 11.04 5.6 5.6 0 1 0 1.92-11.04zM9.74 416.07a5.6 5.6 0 1 0-1.92 11.04 5.6 5.6 0 1 0 1.92-11.04zM7.69 334.52a5.6 5.6 0 1 0-1.92 11.03 5.6 5.6 0 1 0 1.92-11.03zM4.95 350.28a5.6 5.6 0 1 0-1.92 11.03 5.6 5.6 0 1 0 1.92-11.03zM2.21 366.04a5.6 5.6 0 1 0-1.92 11.04 5.6 5.6 0 1 0 1.92-11.04zM-0.54 381.81a5.6 5.6 0 1 0-1.91 11.03 5.6 5.6 0 1 0 1.91-11.03zM-2.59 300.25a5.6 5.6 0 1 0-1.92 11.03 5.6 5.6 0 1 0 1.92-11.03zM-5.33 316.01a5.6 5.6 0 1 0-1.92 11.03 5.6 5.6 0 1 0 1.92-11.03zM-8.07 331.77a5.6 5.6 0 1 0-1.92 11.04 5.6 5.6 0 1 0 1.92-11.04zM-10.81 347.54a5.6 5.6 0 1 0-1.92 11.03 5.6 5.6 0 1 0 1.92-11.03z" stroke="#e73635" stroke-width="2.46" stroke-dasharray="2, 2"></path><rect width="372" height="372" clip-path="url(&quot;#SvgjsClipPath1145&quot;)" x="944.96" y="-79.55" fill="url(#SvgjsPattern1146)" transform="rotate(334.9, 1130.96, 106.45)"></rect><path d="M593.76 312.6 L632.24 292.59000000000003L632.2979018810215 321.89290188102154z" stroke="#e73635" stroke-width="2.7" stroke-dasharray="4, 4"></path><path d="M211.24 527.89a5.6 5.6 0 1 0-8.48-7.32 5.6 5.6 0 1 0 8.48 7.32zM199.13 517.44a5.6 5.6 0 1 0-8.48-7.32 5.6 5.6 0 1 0 8.48 7.32zM187.01 506.98a5.6 5.6 0 1 0-8.48-7.31 5.6 5.6 0 1 0 8.48 7.31zM174.9 496.53a5.6 5.6 0 1 0-8.48-7.31 5.6 5.6 0 1 0 8.48 7.31zM245.93 536.67a5.6 5.6 0 1 0-8.49-7.31 5.6 5.6 0 1 0 8.49 7.31zM233.81 526.22a5.6 5.6 0 1 0-8.48-7.31 5.6 5.6 0 1 0 8.48 7.31zM221.69 515.77a5.6 5.6 0 1 0-8.48-7.31 5.6 5.6 0 1 0 8.48 7.31zM209.58 505.32a5.6 5.6 0 1 0-8.48-7.32 5.6 5.6 0 1 0 8.48 7.32zM280.61 545.46a5.6 5.6 0 1 0-8.48-7.32 5.6 5.6 0 1 0 8.48 7.32zM268.49 535.01a5.6 5.6 0 1 0-8.48-7.32 5.6 5.6 0 1 0 8.48 7.32zM256.38 524.56a5.6 5.6 0 1 0-8.48-7.32 5.6 5.6 0 1 0 8.48 7.32zM244.26 514.11a5.6 5.6 0 1 0-8.48-7.32 5.6 5.6 0 1 0 8.48 7.32z" stroke="#d3b714" stroke-width="2.78" stroke-dasharray="4, 4"></path><path d="M749.39 66.35L737.22 70.36 730.64 59.37 718.48 63.38 711.9 52.4 699.74 56.4 693.16 45.42" stroke="#d3b714" stroke-width="1.34" stroke-dasharray="4, 4"></path><path d="M704.55 213.63a5.6 5.6 0 1 0-2.79 10.85 5.6 5.6 0 1 0 2.79-10.85zM700.56 229.13a5.6 5.6 0 1 0-2.78 10.85 5.6 5.6 0 1 0 2.78-10.85zM696.58 244.63a5.6 5.6 0 1 0-2.78 10.85 5.6 5.6 0 1 0 2.78-10.85zM692.6 260.12a5.6 5.6 0 1 0-2.79 10.85 5.6 5.6 0 1 0 2.79-10.85zM697.01 178.66a5.6 5.6 0 1 0-2.78 10.85 5.6 5.6 0 1 0 2.78-10.85zM693.03 194.16a5.6 5.6 0 1 0-2.79 10.84 5.6 5.6 0 1 0 2.79-10.84zM689.05 209.65a5.6 5.6 0 1 0-2.79 10.85 5.6 5.6 0 1 0 2.79-10.85zM685.07 225.15a5.6 5.6 0 1 0-2.79 10.85 5.6 5.6 0 1 0 2.79-10.85zM689.48 143.68a5.6 5.6 0 1 0-2.79 10.85 5.6 5.6 0 1 0 2.79-10.85zM685.5 159.18a5.6 5.6 0 1 0-2.79 10.85 5.6 5.6 0 1 0 2.79-10.85zM681.52 174.68a5.6 5.6 0 1 0-2.79 10.85 5.6 5.6 0 1 0 2.79-10.85zM677.54 190.17a5.6 5.6 0 1 0-2.79 10.85 5.6 5.6 0 1 0 2.79-10.85z" stroke="#d3b714" stroke-width="2.6" stroke-dasharray="2, 2"></path><path d="M380.67 379.08L392.22 384.61 389.36 397.1 400.91 402.63 398.04 415.11 409.59 420.65 406.73 433.13M373.46 382.56L385.01 388.09 382.15 400.57 393.7 406.1 390.84 418.59 402.38 424.12 399.52 436.6M366.26 386.03L377.81 391.56 374.94 404.05 386.49 409.58 383.63 422.06 395.18 427.59 392.32 440.08" stroke="#e73635" stroke-width="1" stroke-dasharray="3, 2"></path><path d="M514.09 460.94a5.6 5.6 0 1 0 11.16-0.99 5.6 5.6 0 1 0-11.16 0.99zM530.03 459.53a5.6 5.6 0 1 0 11.16-0.99 5.6 5.6 0 1 0-11.16 0.99zM545.97 458.12a5.6 5.6 0 1 0 11.16-0.98 5.6 5.6 0 1 0-11.16 0.98zM561.91 456.71a5.6 5.6 0 1 0 11.15-0.98 5.6 5.6 0 1 0-11.15 0.98zM483.63 479.69a5.6 5.6 0 1 0 11.15-0.98 5.6 5.6 0 1 0-11.15 0.98zM499.56 478.28a5.6 5.6 0 1 0 11.16-0.98 5.6 5.6 0 1 0-11.16 0.98zM515.5 476.88a5.6 5.6 0 1 0 11.16-0.99 5.6 5.6 0 1 0-11.16 0.99zM531.44 475.47a5.6 5.6 0 1 0 11.16-0.99 5.6 5.6 0 1 0-11.16 0.99z" fill="#e73635"></path><path d="M982.17 157.89L969.46 159.47 965.13 147.41 952.42 148.99 948.09 136.94 935.38 138.51 931.06 126.46" stroke="#e73635" stroke-width="1" stroke-dasharray="4, 4"></path><rect width="96" height="96" clip-path="url(&quot;#SvgjsClipPath1147&quot;)" x="660.42" y="444.83" fill="url(#SvgjsPattern1148)" transform="rotate(339.76, 708.42, 492.83)"></rect></g><defs><mask id="SvgjsMask1144"><rect width="1440" height="560" fill="#ffffff"></rect></mask><pattern x="0" y="0" width="6" height="6" patternUnits="userSpaceOnUse" id="SvgjsPattern1146"><path d="M0 6L3 0L6 6" stroke="#e73635" fill="none"></path></pattern><clipPath id="SvgjsClipPath1145"><circle r="93" cx="1130.96" cy="106.45"></circle></clipPath><pattern x="0" y="0" width="6" height="6" patternUnits="userSpaceOnUse" id="SvgjsPattern1148"><path d="M0 6L3 0L6 6" stroke="#037b0b" fill="none"></path></pattern><clipPath id="SvgjsClipPath1147"><circle r="24" cx="708.42" cy="492.83"></circle></clipPath></defs></svg>